<svg xmlns="http://www.w3.org/2000/svg" width="130" height="35" viewBox="0 0 130 35">
    <defs>
        <linearGradient id="grtjyp731a" x1="5.551%" x2="97.043%" y1="0%" y2="100%">
            <stop offset="0%" stop-color="#F85D7F"/>
            <stop offset="100%" stop-color="#6B81FA"/>
        </linearGradient>
    </defs>
    <g fill="none" fill-rule="evenodd">
        <g fill-rule="nonzero">
            <g>
                <g>
                    <path fill="url(#grtjyp731a)" d="M18.004 1.254C18.14.147 16.753-.451 16.047.41L.255 19.688c-.596.727-.081 1.822.856 1.822h14.135c.666 0 1.182.586 1.1 1.25l-1.35 10.986c-.136 1.107 1.251 1.705 1.957.844l15.792-19.278c.596-.727.081-1.822-.856-1.822H17.754c-.666 0-1.182-.586-1.1-1.25l1.35-10.986z" transform="translate(-150 -3116) translate(150 3116)"/>
                    <path fill="#FFF" d="M39.001 28.522l1.303-4.484h7.75l1.323 4.484h4.001L47.09 7h-5.802L35 28.522h4.001zm7.932-8.28h-5.525l2.74-9.432 2.785 9.432zM59.457 29c1.515 0 2.77-.344 3.766-1.031.46-.318.865-.68 1.218-1.09l.018-.02v1.663h3.43V12.38h-3.916v8.19c0 .997-.107 1.802-.322 2.414-.214.613-.488 1.076-.821 1.39-.334.314-.691.526-1.072.636-.381.11-.739.164-1.072.164-.829 0-1.47-.194-1.922-.583-.453-.389-.779-.872-.979-1.45-.2-.578-.32-1.153-.357-1.726-.038-.573-.057-1.044-.057-1.412V12.38h-3.945v9.057c0 .27.02.698.057 1.286.039.588.148 1.238.33 1.95.18.713.483 1.398.907 2.055.424.658 1.017 1.2 1.779 1.63.762.428 1.748.642 2.958.642zm14.277-.478v-8.25c0-.618.08-1.173.243-1.667.162-.493.4-.921.714-1.285.315-.364.7-.655 1.158-.874.457-.23.97-.367 1.536-.411.567-.045 1.065.002 1.493.142V12.38c-.466-.06-.933-.072-1.4-.037-.467.035-.92.12-1.358.254-.438.135-.843.321-1.214.56-.486.3-.896.678-1.23 1.136-.151.209-.289.427-.413.656l-.015.03V12.38h-3.43v16.142h3.916zm12.981.448c1.543 0 2.904-.361 4.08-1.083 1.177-.723 2.096-1.724 2.758-3.005.662-1.28.994-2.757.994-4.43 0-1.665-.33-3.137-.987-4.417-.657-1.28-1.574-2.285-2.75-3.012-1.177-.727-2.542-1.09-4.095-1.09-1.524 0-2.872.358-4.044 1.075-1.172.718-2.092 1.716-2.758 2.997-.667 1.28-1 2.762-1 4.446 0 1.664.326 3.136.978 4.417.653 1.28 1.565 2.284 2.737 3.011 1.172.727 2.534 1.091 4.087 1.091zm0-3.796c-1.21 0-2.127-.426-2.75-1.278-.625-.852-.937-2-.937-3.445 0-.937.131-1.759.393-2.466.262-.707.665-1.26 1.208-1.659.543-.398 1.238-.598 2.086-.598 1.23 0 2.156.429 2.78 1.286.624.856.936 2.002.936 3.437 0 1.385-.308 2.518-.922 3.4-.615.882-1.546 1.323-2.794 1.323zm13.002 3.348v-8.25c0-.618.081-1.173.243-1.667.162-.493.4-.921.715-1.285.314-.364.7-.655 1.157-.874.458-.23.97-.367 1.537-.411.566-.045 1.064.002 1.493.142V12.38c-.467-.06-.934-.072-1.4-.037-.467.035-.92.12-1.358.254-.438.135-.843.321-1.215.56-.486.3-.895.678-1.229 1.136-.151.209-.29.427-.413.656l-.016.03V12.38h-3.43v16.142h3.916zm11.623.448c1.334 0 2.436-.242 3.308-.725.654-.362 1.274-.894 1.861-1.596l.09-.109v1.982H120v-9.864c0-.738-.029-1.405-.086-2.003-.057-.598-.238-1.196-.543-1.794-.543-1.076-1.343-1.833-2.4-2.271-1.058-.439-2.268-.658-3.63-.658-1.858 0-3.326.419-4.402 1.255-1.077.837-1.81 1.924-2.201 3.259l3.516 1.165c.247-.737.68-1.25 1.3-1.539.62-.289 1.215-.433 1.786-.433 1.03 0 1.763.224 2.201.672.337.345.545.84.623 1.486l.004.04-.167.025-1.47.23-.233.035c-1 .154-1.896.316-2.687.486-.79.17-1.472.363-2.043.583-.83.318-1.489.715-1.98 1.188-.49.473-.845 1.019-1.064 1.636-.22.618-.33 1.3-.33 2.048 0 .897.199 1.716.594 2.458.395.743.977 1.336 1.744 1.779.766.443 1.703.665 2.808.665zm.829-3.198c-.448 0-.834-.07-1.158-.21-.324-.139-.574-.34-.75-.605-.177-.264-.265-.58-.265-.949 0-.269.055-.513.165-.732.11-.22.28-.421.514-.605.234-.185.54-.357.922-.516.333-.13.72-.25 1.157-.359.439-.11 1.015-.231 1.73-.366.428-.08.936-.173 1.523-.277l.127-.022-.001.036c-.007.235-.018.494-.034.777l-.008.144c-.033.583-.15 1.093-.35 1.532-.105.229-.302.513-.593.851-.29.34-.681.64-1.172.905-.49.264-1.093.396-1.807.396z" transform="translate(-150 -3116) translate(150 3116)"/>
                </g>
            </g>
        </g>
    </g>
</svg>
