<?xml version="1.0" encoding="UTF-8"?>
<svg width="26px" height="29px" viewBox="0 0 26 29" version="1.1" xmlns="http://www.w3.org/2000/svg" xmlns:xlink="http://www.w3.org/1999/xlink">
    <title>API Integration</title>
    <defs>
        <linearGradient x1="33.5131776%" y1="23.7591197%" x2="70.5197564%" y2="76.0133563%" id="linearGradient-1">
            <stop stop-color="#FFFFFF" offset="0%"></stop>
            <stop stop-color="#CCBED5" offset="100%"></stop>
        </linearGradient>
        <linearGradient x1="48.8859952%" y1="-1.01684798%" x2="51.3865077%" y2="100.574502%" id="linearGradient-2">
            <stop stop-color="#FFFFFF" offset="0%"></stop>
            <stop stop-color="#CCBED5" offset="100%"></stop>
        </linearGradient>
        <linearGradient x1="33.5131776%" y1="27.3258799%" x2="70.5197564%" y2="72.4775221%" id="linearGradient-3">
            <stop stop-color="#FFFFFF" offset="0%"></stop>
            <stop stop-color="#CCBED5" offset="100%"></stop>
        </linearGradient>
    </defs>
    <g id="Page-1" stroke="none" stroke-width="1" fill="none" fill-rule="evenodd">
        <g id="Group-25-Copy-2" transform="translate(-37.000000, -44.000000)" fill-rule="nonzero">
            <g id="Group-32" transform="translate(21.000000, 29.000000)">
                <g id="Group-23">
                    <g id="Group-34" transform="translate(16.000000, 15.000000)">
                        <g id="Group-33" transform="translate(0.000000, 0.500000)">
                            <g id="API-Integration">
                                <path d="M19.9639517,6.94851168 L18.4848213,6.94851168 C17.2644969,2.28671268 12.6268953,-0.675750744 7.81490061,0.132650372 C3.00290595,0.941051487 -0.378955834,5.25076146 0.034112273,10.0481772 C0.44718038,14.8455929 4.51744371,18.5310497 9.39873434,18.5274617 L19.9639517,18.5274617 C23.2056231,18.5274617 25.8335169,15.9354234 25.8335169,12.7379854 C25.8335169,9.54054734 23.2056231,6.94851168 19.9639517,6.94851168 L19.9639517,6.94851168 Z" id="Path" fill="url(#linearGradient-1)"></path>
                                <g id="upload-cloud" transform="translate(7.335932, 18.580091)">
                                    <path d="M5.23777086,0.919997199 C5.75056166,0.913200453 6.17831214,1.29360497 6.24266354,1.79013439 L6.25093629,1.90665611 L6.33046282,7.90665611 C6.33778239,8.45889236 5.89604015,8.91250197 5.3438039,8.91982154 C4.83101311,8.92661829 4.40326262,8.54621377 4.33891123,8.04968435 L4.33063848,7.93316263 L4.25111194,1.93316263 C4.24379237,1.38092638 4.68553461,0.927316771 5.23777086,0.919997199 Z" id="Path" fill="url(#linearGradient-2)"></path>
                                    <path d="M4.4114909,1.26140476 C4.78144424,0.838600944 5.4186241,0.808400671 5.82675266,1.17080394 L5.91664429,1.26140476 L9.41664429,5.26140476 C9.78032634,5.67704139 9.73820883,6.30880401 9.3225722,6.67248607 C8.93890762,7.00819258 8.37108835,6.99812905 7.99995596,6.66768491 L7.9114909,6.57841398 L5.164,3.438 L2.41664429,6.57841398 C2.08093778,6.96207856 1.51680759,7.02747833 1.10509529,6.74922384 L1.00556299,6.67248607 C0.621898403,6.33677956 0.556498636,5.77264937 0.834753121,5.36093707 L0.911490899,5.26140476 L4.4114909,1.26140476 Z" id="Path" fill="url(#linearGradient-3)"></path>
                                </g>
                            </g>
                        </g>
                    </g>
                </g>
            </g>
        </g>
    </g>
</svg>