<?xml version="1.0" encoding="UTF-8"?>
<svg width="19px" height="20px" viewBox="0 0 19 20" version="1.1" xmlns="http://www.w3.org/2000/svg" xmlns:xlink="http://www.w3.org/1999/xlink">
    <title>scissors</title>
    <defs>
        <linearGradient x1="33.5131776%" y1="-1.01684798%" x2="70.5197564%" y2="100.574502%" id="linearGradient-1">
            <stop stop-color="#FFFFFF" offset="0%"></stop>
            <stop stop-color="#CCBED5" offset="100%"></stop>
        </linearGradient>
        <linearGradient x1="33.5131776%" y1="-0.881435037%" x2="70.5197564%" y2="100.440263%" id="linearGradient-2">
            <stop stop-color="#FFFFFF" offset="0%"></stop>
            <stop stop-color="#CCBED5" offset="100%"></stop>
        </linearGradient>
    </defs>
    <g id="Page-1" stroke="none" stroke-width="1" fill="none" fill-rule="evenodd">
        <g id="scissors" fill-rule="nonzero">
            <path d="M17.2928932,1.29289322 C17.6834175,0.902368927 18.3165825,0.902368927 18.7071068,1.29289322 C19.0675907,1.65337718 19.0953203,2.22060824 18.7902954,2.61289944 L18.7071068,2.70710678 L6.82710678,14.5871068 C6.43658249,14.9776311 5.80341751,14.9776311 5.41289322,14.5871068 C5.05240926,14.2266228 5.02467972,13.6593918 5.32970461,13.2671006 L5.41289322,13.1728932 L17.2928932,1.29289322 Z" id="Path" fill="url(#linearGradient-1)"></path>
            <path d="M11.7622536,11.7735334 C12.1224112,11.4127234 12.6896169,11.3844805 13.082184,11.6891503 L13.1764666,11.7722536 L18.7064666,17.2922536 C19.0973441,17.6824243 19.0979171,18.315589 18.7077464,18.7064666 C18.3475888,19.0672766 17.7803831,19.0955195 17.387816,18.7908497 L17.2935334,18.7077464 L11.7635334,13.1877464 C11.3726559,12.7975757 11.3720829,12.164411 11.7622536,11.7735334 Z" id="Path" fill="url(#linearGradient-2)"></path>
            <path d="M4,12 C1.790861,12 0,13.790861 0,16 C0,18.209139 1.790861,20 4,20 C6.209139,20 8,18.209139 8,16 C8,13.790861 6.209139,12 4,12 Z M4,14 C5.1045695,14 6,14.8954305 6,16 C6,17.1045695 5.1045695,18 4,18 C2.8954305,18 2,17.1045695 2,16 C2,14.8954305 2.8954305,14 4,14 Z" id="Oval" fill="url(#linearGradient-1)"></path>
            <path d="M5.41289322,5.41289322 C5.77337718,5.05240926 6.34060824,5.02467972 6.73289944,5.32970461 L6.82710678,5.41289322 L10.7071068,9.29289322 C11.0976311,9.68341751 11.0976311,10.3165825 10.7071068,10.7071068 C10.3466228,11.0675907 9.77939176,11.0953203 9.38710056,10.7902954 L9.29289322,10.7071068 L5.41289322,6.82710678 C5.02236893,6.43658249 5.02236893,5.80341751 5.41289322,5.41289322 Z" id="Path" fill="url(#linearGradient-1)"></path>
            <path d="M4,0 C1.790861,0 0,1.790861 0,4 C0,6.209139 1.790861,8 4,8 C6.209139,8 8,6.209139 8,4 C8,1.790861 6.209139,0 4,0 Z M4,2 C5.1045695,2 6,2.8954305 6,4 C6,5.1045695 5.1045695,6 4,6 C2.8954305,6 2,5.1045695 2,4 C2,2.8954305 2.8954305,2 4,2 Z" id="Oval" fill="url(#linearGradient-1)"></path>
        </g>
    </g>
</svg>