<?xml version="1.0" encoding="UTF-8"?>
<svg width="24px" height="31px" viewBox="0 0 24 31" version="1.1" xmlns="http://www.w3.org/2000/svg" xmlns:xlink="http://www.w3.org/1999/xlink">
    <title>file</title>
    <defs>
        <linearGradient x1="40.8076055%" y1="5.46888403%" x2="50.4813224%" y2="99.7539842%" id="linearGradient-1">
            <stop stop-color="#FFFFFF" offset="0%"></stop>
            <stop stop-color="#CCBED5" offset="100%"></stop>
        </linearGradient>
    </defs>
    <g id="Page-1" stroke="none" stroke-width="1" fill="none" fill-rule="evenodd">
        <g id="Group-25-Copy-2" transform="translate(-38.000000, -212.000000)" fill="url(#linearGradient-1)" fill-rule="nonzero">
            <g id="Group-28" transform="translate(0.000000, 193.000000)">
                <g id="file" transform="translate(38.000000, 19.000000)">
                    <path d="M13.5,0 L24,10.85 L24,27.9 C24,29.6120827 22.6568542,31 21,31 L21,31 L3,31 C1.34314575,31 0,29.6120827 0,27.9 L0,27.9 L0,3.1 C0,1.38791728 1.34314575,0 3,0 L3,0 L13.5,0 Z M13,4 L13,11 C13,11.5522847 13.4477153,12 14,12 L21,12 L13,4 Z" id="Combined-Shape"></path>
                </g>
            </g>
        </g>
    </g>
</svg>