<?xml version="1.0" encoding="UTF-8"?>
<svg width="20px" height="27px" viewBox="0 0 20 27" version="1.1" xmlns="http://www.w3.org/2000/svg" xmlns:xlink="http://www.w3.org/1999/xlink">
    <title>Mobile Downloaad</title>
    <defs>
        <linearGradient x1="42.6725234%" y1="-1.01684798%" x2="59.1198918%" y2="100.574502%" id="linearGradient-1">
            <stop stop-color="#FFFFFF" offset="0%"></stop>
            <stop stop-color="#CCBED5" offset="100%"></stop>
        </linearGradient>
        <linearGradient x1="48.9695736%" y1="-1.01684798%" x2="51.2824848%" y2="100.574502%" id="linearGradient-2">
            <stop stop-color="#FFFFFF" offset="0%"></stop>
            <stop stop-color="#CCBED5" offset="100%"></stop>
        </linearGradient>
        <linearGradient x1="33.5131776%" y1="30.0715438%" x2="70.5197564%" y2="69.7556647%" id="linearGradient-3">
            <stop stop-color="#FFFFFF" offset="0%"></stop>
            <stop stop-color="#CCBED5" offset="100%"></stop>
        </linearGradient>
    </defs>
    <g id="Page-1" stroke="none" stroke-width="1" fill="none" fill-rule="evenodd">
        <g id="Group-25-Copy" transform="translate(-42.000000, -292.000000)">
            <g id="Group-31-Copy" transform="translate(21.000000, 275.000000)">
                <g id="Group-30">
                    <g id="Mobile-Downloaad" transform="translate(21.000000, 17.000000)">
                        <path d="M14,0 C15.1045695,-2.02906125e-16 16,0.8954305 16,2 L16,22 C16,23.1045695 15.1045695,24 14,24 L2,24 C0.8954305,24 1.3527075e-16,23.1045695 0,22 L0,2 C-1.3527075e-16,0.8954305 0.8954305,2.02906125e-16 2,0 L14,0 Z M8.00568586,18 L7.86169595,18.0080733 C7.29613668,18.0773914 6.85714286,18.584597 6.85714286,19.2 C6.85714286,19.8627417 7.36627178,20.4 7.99431414,20.4 L7.99431414,20.4 L8.13830405,20.3919267 C8.70386332,20.3226086 9.14285714,19.815403 9.14285714,19.2 C9.14285714,18.5372583 8.63372822,18 8.00568586,18 L8.00568586,18 Z" id="Combined-Shape" fill="url(#linearGradient-1)"></path>
                        <g id="arrow-down-copy-9" transform="translate(12.000000, 19.000000)" fill-rule="nonzero">
                            <path d="M4,0 C4.51283584,0 4.93550716,0.38604019 4.99327227,0.883378875 L5,1 L5,7 C5,7.55228475 4.55228475,8 4,8 C3.48716416,8 3.06449284,7.61395981 3.00672773,7.11662113 L3,7 L3,1 C3,0.44771525 3.44771525,0 4,0 Z" id="Path" fill="url(#linearGradient-2)"></path>
                            <path d="M0.292893219,3.29289322 C0.65337718,2.93240926 1.22060824,2.90467972 1.61289944,3.20970461 L1.70710678,3.29289322 L4,5.585 L6.29289322,3.29289322 C6.65337718,2.93240926 7.22060824,2.90467972 7.61289944,3.20970461 L7.70710678,3.29289322 C8.06759074,3.65337718 8.09532028,4.22060824 7.79029539,4.61289944 L7.70710678,4.70710678 L4.70710678,7.70710678 C4.34662282,8.06759074 3.77939176,8.09532028 3.38710056,7.79029539 L3.29289322,7.70710678 L0.292893219,4.70710678 C-0.0976310729,4.31658249 -0.0976310729,3.68341751 0.292893219,3.29289322 Z" id="Path" fill="url(#linearGradient-3)"></path>
                        </g>
                    </g>
                </g>
            </g>
        </g>
    </g>
</svg>