<?xml version="1.0" encoding="UTF-8"?>
<svg width="29px" height="26px" viewBox="0 0 29 26" version="1.1" xmlns="http://www.w3.org/2000/svg" xmlns:xlink="http://www.w3.org/1999/xlink">
    <title>Download Mac &amp; Windows</title>
    <defs>
        <linearGradient x1="47.6815406%" y1="-1.01684798%" x2="52.8855908%" y2="100.574502%" id="linearGradient-1">
            <stop stop-color="#FFFFFF" offset="0%"></stop>
            <stop stop-color="#CCBED5" offset="100%"></stop>
        </linearGradient>
        <linearGradient x1="33.5131776%" y1="25.548138%" x2="70.5197564%" y2="74.2398499%" id="linearGradient-2">
            <stop stop-color="#FFFFFF" offset="0%"></stop>
            <stop stop-color="#CCBED5" offset="100%"></stop>
        </linearGradient>
        <linearGradient x1="-39.981531%" y1="31.4207188%" x2="136.855432%" y2="60.8767693%" id="linearGradient-3">
            <stop stop-color="#FFFFFF" offset="0%"></stop>
            <stop stop-color="#CCBED5" offset="100%"></stop>
        </linearGradient>
        <linearGradient x1="48.9695736%" y1="-1.01684798%" x2="51.2824848%" y2="100.574502%" id="linearGradient-4">
            <stop stop-color="#FFFFFF" offset="0%"></stop>
            <stop stop-color="#CCBED5" offset="100%"></stop>
        </linearGradient>
        <linearGradient x1="33.5131776%" y1="30.0715438%" x2="70.5197564%" y2="69.7556647%" id="linearGradient-5">
            <stop stop-color="#FFFFFF" offset="0%"></stop>
            <stop stop-color="#CCBED5" offset="100%"></stop>
        </linearGradient>
    </defs>
    <g id="Page-1" stroke="none" stroke-width="1" fill="none" fill-rule="evenodd">
        <g id="Group-25-Copy" transform="translate(-37.000000, -209.000000)" fill-rule="nonzero">
            <g id="Group-32-Copy" transform="translate(21.000000, 193.000000)">
                <g id="Group-23">
                    <g id="Download-Mac-&amp;-Windows" transform="translate(16.000000, 16.000000)">
                        <g id="monitor">
                            <path d="M13.5,17 C14.2796961,17 14.9204487,17.5948881 14.9931334,18.35554 L15,18.5 L15,23.5 C15,24.3284271 14.3284271,25 13.5,25 C12.7203039,25 12.0795513,24.4051119 12.0068666,23.64446 L12,23.5 L12,18.5 C12,17.6715729 12.6715729,17 13.5,17 Z" id="Path" fill="url(#linearGradient-1)"></path>
                            <rect id="Rectangle" fill="url(#linearGradient-2)" x="0" y="0.5" width="26" height="18" rx="2"></rect>
                            <path d="M18,22.5 C18.8284271,22.5 19.5,23.1715729 19.5,24 C19.5,24.7796961 18.9051119,25.4204487 18.14446,25.4931334 L18,25.5 L8,25.5 C7.17157288,25.5 6.5,24.8284271 6.5,24 C6.5,23.2203039 7.09488808,22.5795513 7.85553999,22.5068666 L8,22.5 L18,22.5 Z" id="Path" fill="url(#linearGradient-3)"></path>
                        </g>
                        <g id="arrow-down" transform="translate(22.000000, 14.000000)">
                            <path d="M3,-1 C3.51283584,-1 3.93550716,-0.61395981 3.99327227,-0.116621125 L4,0 L4,6 C4,6.55228475 3.55228475,7 3,7 C2.48716416,7 2.06449284,6.61395981 2.00672773,6.11662113 L2,6 L2,0 C2,-0.55228475 2.44771525,-1 3,-1 Z" id="Path" fill="url(#linearGradient-4)"></path>
                            <path d="M-0.707106781,2.29289322 C-0.34662282,1.93240926 0.220608236,1.90467972 0.612899443,2.20970461 L0.707106781,2.29289322 L3,4.585 L5.29289322,2.29289322 C5.65337718,1.93240926 6.22060824,1.90467972 6.61289944,2.20970461 L6.70710678,2.29289322 C7.06759074,2.65337718 7.09532028,3.22060824 6.79029539,3.61289944 L6.70710678,3.70710678 L3.70710678,6.70710678 C3.34662282,7.06759074 2.77939176,7.09532028 2.38710056,6.79029539 L2.29289322,6.70710678 L-0.707106781,3.70710678 C-1.09763107,3.31658249 -1.09763107,2.68341751 -0.707106781,2.29289322 Z" id="Path" fill="url(#linearGradient-5)"></path>
                        </g>
                    </g>
                </g>
            </g>
        </g>
    </g>
</svg>